<?xml version="1.0" encoding="UTF-8"?>
<!--Generator: Apple Native CoreSVG 175.5-->
<!DOCTYPE svg
PUBLIC "-//W3C//DTD SVG 1.1//EN"
       "http://www.w3.org/Graphics/SVG/1.1/DTD/svg11.dtd">
<svg version="1.1" xmlns="http://www.w3.org/2000/svg" xmlns:xlink="http://www.w3.org/1999/xlink" width="17.8711" height="23.8623">
 <g>
  <rect height="23.8623" opacity="0" width="17.8711" x="0" y="0"/>
  <path d="M1.94824 23.8623L5.28809 23.8623C6.5625 23.8623 7.23633 23.1885 7.23633 21.8994L7.23633 1.94824C7.23633 0.615234 6.5625 0 5.28809 0L1.94824 0C0.673828 0 0 0.673828 0 1.94824L0 21.8994C0 23.1885 0.673828 23.8623 1.94824 23.8623ZM12.5977 23.8623L15.9229 23.8623C17.2119 23.8623 17.8711 23.1885 17.8711 21.8994L17.8711 1.94824C17.8711 0.615234 17.2119 0 15.9229 0L12.5977 0C11.3086 0 10.6348 0.673828 10.6348 1.94824L10.6348 21.8994C10.6348 23.1885 11.3086 23.8623 12.5977 23.8623Z" fill="#000000" fill-opacity="0.85"/>
 </g>
</svg>
